<svg width="244" height="48" viewBox="0 0 244 48" fill="none" xmlns="http://www.w3.org/2000/svg">
<g clip-path="url(#clip0)">
<path d="M113.971 33.0162C113.973 33.0162 113.973 33.0162 113.978 33.0162L113.985 33.0093L113.971 33.0162Z" fill="#101820"/>
<path d="M113.985 33.0093L113.978 33.0162C113.975 33.0162 113.975 33.0162 113.971 33.0162L113.985 33.0093Z" fill="#101820"/>
<path d="M240.001 4.19442V1.91664H239.152V1.61108H241.198V1.91664H240.344V4.19442H240.001Z" fill="#101820"/>
<path d="M241.537 4.19442V1.61108H242.051L242.662 3.43979C242.717 3.61108 242.759 3.7384 242.784 3.82173C242.814 3.72682 242.858 3.59025 242.921 3.40738L243.538 1.61108H243.999V4.19442H243.67V2.03238L242.921 4.19442H242.613L241.866 1.99534V4.19442H241.537Z" fill="#101820"/>
<path d="M161.693 14.1018V8.36336H156.88V1.21753L151.05 2.11336V4.5717C151.05 6.71059 149.884 8.36336 147.357 8.36336H146.143V14.1018H150.469V25.2407C150.469 29.8587 153.384 32.6319 158.049 32.6319H161.695V26.8935H159.703C157.859 26.8935 156.883 26.2106 156.883 24.1203V14.1018H161.693Z" fill="#101820"/>
<path d="M202.407 8.45818C201.919 8.40957 201.433 8.36096 200.898 8.36096C198.858 8.36096 195.551 8.74985 194.094 11.9119V8.36328L187.826 9.32393V32.2892H194.291V21.3471C194.291 16.192 197.157 14.5901 200.463 14.5901H202.409V8.45818H202.407Z" fill="#101820"/>
<path d="M219.057 8.45818C218.569 8.40957 218.083 8.36096 217.549 8.36096C215.508 8.36096 212.202 8.74985 210.744 11.9119V8.36328L204.477 9.32393V32.2892H210.941V21.3471C210.941 16.192 213.808 14.5901 217.114 14.5901H219.059V8.45818H219.057Z" fill="#101820"/>
<path d="M124.359 20.0346C124.359 12.3518 119.935 7.63647 112.548 7.63647C106.424 7.63647 100.785 12.5948 100.785 20.2291C100.785 28.3008 106.569 33.0207 113.128 33.0207C119.618 33.0207 124.088 28.2406 124.088 24.4142H118.374C117.52 26.236 115.91 27.4767 113.175 27.4767C109.966 27.4767 107.296 25.1897 107.148 22.0323H124.255C124.259 21.9305 124.359 20.9582 124.359 20.0346ZM107.298 17.6041C107.442 15.4166 109.29 12.8865 112.645 12.8865C116.338 12.8865 117.895 15.2221 117.992 17.6041H107.298Z" fill="#101820"/>
<path d="M185.919 20.0346C185.919 12.3518 181.496 7.63647 174.108 7.63647C167.984 7.63647 162.346 12.5948 162.346 20.2291C162.346 28.3008 168.13 33.0207 174.689 33.0207C181.179 33.0207 185.649 28.2406 185.649 24.4142H179.934C179.08 26.236 177.47 27.4767 174.735 27.4767C171.526 27.4767 168.856 25.1897 168.708 22.0323H185.815C185.82 21.9305 185.919 20.9582 185.919 20.0346ZM168.859 17.6041C169.002 15.4166 170.851 12.8865 174.205 12.8865C177.898 12.8865 179.455 15.2221 179.552 17.6041H168.859Z" fill="#101820"/>
<path d="M144.945 25.1388C144.945 29.03 141.937 33.0161 135.667 33.0184H135.66C129.175 33.0161 125.596 29.0555 125.596 24.4119H131.239C131.315 25.3587 131.699 26.2707 132.423 26.9467C133.145 27.6226 134.207 28.0601 135.614 28.0601C137.752 28.0601 138.774 26.9397 138.774 25.6758C138.774 24.6041 138.045 23.7291 136.199 23.3402L133.039 22.611C128.423 21.5925 126.329 18.8193 126.329 15.4652C126.329 11.1851 130.124 7.63647 135.271 7.63647C141.953 7.63647 144.276 11.8078 144.63 14.398L139.149 15.236C138.795 13.942 137.715 12.5462 135.318 12.5462C133.617 12.5462 132.257 13.5693 132.257 14.9305C132.257 15.4467 132.426 15.8772 132.736 16.2175C133.117 16.648 133.714 16.9328 134.443 17.0717L137.846 17.7985C142.564 18.7707 144.945 21.6411 144.945 25.1388Z" fill="#101820"/>
<path d="M241.144 24.1203L241.146 16.7291C241.146 11.9143 238.326 7.63647 230.747 7.63647C224.692 7.63647 221.279 11.3147 220.587 14.8749L226.418 15.7661C226.938 14.1133 228.419 12.8355 230.793 12.8355C233.511 12.8355 234.828 14.2476 234.828 15.949C234.828 16.3448 234.728 16.7105 234.469 16.9999C234.196 17.317 233.736 17.5508 233.028 17.6504L227.149 18.5254C223.162 19.111 220.002 21.4906 220.002 25.7707C220.002 29.5138 223.114 32.9652 228.218 32.9652C231.515 32.9652 234.104 31.4675 235.698 29.2777C236.917 31.4235 239.233 32.6295 242.308 32.6295H243.96V26.8911C242.118 26.8911 241.144 26.2105 241.144 24.1203ZM234.832 22.611C234.832 26.8402 232.306 28.155 229.583 28.155C227.494 28.155 226.471 26.7916 226.471 25.3818C226.471 23.5323 227.783 22.6087 229.439 22.368L234.832 21.5416V22.611Z" fill="#101820"/>
<path d="M97.3496 1.21753L91.3411 20.53L85.395 2.16197L85.0965 1.21753H79.2893L73.0355 20.5347L67.2883 2.04392L67.0269 1.21753H60.3867L69.9537 32.3148H75.9761L82.1883 12.9073L88.1343 31.493L88.3958 32.3148H94.4228L103.455 2.96058L103.985 1.21753H97.3496Z" fill="#101820"/>
<path d="M76.8915 44.4815C76.4727 45.956 75.302 46.8357 73.7565 46.8357C72.0675 46.8357 70.249 45.6227 70.249 42.9607C70.249 40.3079 72.0675 39.0996 73.7565 39.0996C75.3483 39.0996 76.4658 39.9422 76.8221 41.4121L76.836 41.4722L77.9928 41.0718L77.9789 41.0209C77.4907 39.1273 75.8735 37.9491 73.7542 37.9491C72.5395 37.9491 71.348 38.4213 70.485 39.2454C69.5156 40.1713 69.002 41.456 69.002 42.9584C69.002 46.257 71.392 47.9815 73.7542 47.9815C75.8504 47.9815 77.4745 46.7894 77.9928 44.8704L78.0067 44.8195L76.9054 44.4167L76.8915 44.4815Z" fill="#101820"/>
<path d="M80.456 42.0857V40.8357H79.3223V47.7964H80.4837V44.1922C80.4837 42.6228 81.2819 41.9538 82.4434 41.9538C82.647 41.9538 82.8645 41.9677 83.0542 42.0255V40.7894C82.9524 40.7617 82.7488 40.7316 82.5614 40.7316C81.7933 40.7362 80.9071 41.0695 80.456 42.0857Z" fill="#101820"/>
<path d="M87.0157 40.6344C85.2596 40.6344 83.7188 42.102 83.7188 44.2964C83.7188 46.6344 85.3013 48.0024 87.1615 48.0024C88.7741 48.0024 89.8638 47.0279 90.2548 45.8219L89.253 45.4585C88.9777 46.2872 88.3391 46.9562 87.1615 46.9562C85.9121 46.9562 84.9103 46.0117 84.9103 44.69V44.6321H90.2687C90.2826 44.5302 90.2988 44.3705 90.2988 44.2247C90.2965 42.102 89.1211 40.6344 87.0157 40.6344ZM84.938 43.6413C85.0098 42.6089 85.8242 41.6645 87.0296 41.6645C88.3507 41.6645 89.0633 42.5372 89.091 43.6413H84.938Z" fill="#101820"/>
<path d="M97.9363 38.0903H96.7749V41.9561C96.5435 41.3751 95.861 40.6343 94.5237 40.6343C92.5779 40.6343 91.3008 42.2917 91.3008 44.3102C91.3008 46.3727 92.5201 48.0001 94.5237 48.0001C95.7291 48.0001 96.4834 47.2871 96.8026 46.6042V46.794C96.8026 47.2454 96.8466 47.6366 96.8744 47.7963H98.0081C97.978 47.6505 97.9363 47.1852 97.9363 46.4885V38.0903ZM94.6255 46.9538C93.3183 46.9538 92.4622 45.8496 92.4622 44.3102C92.4622 42.7709 93.3044 41.6806 94.6255 41.6806C95.9466 41.6806 96.805 42.7709 96.805 44.3102C96.8026 45.8496 95.9327 46.9538 94.6255 46.9538Z" fill="#101820"/>
<path d="M100.203 37.22C99.7236 37.22 99.3301 37.6112 99.3301 38.0927C99.3301 38.5718 99.7213 38.9653 100.203 38.9653C100.682 38.9653 101.075 38.5741 101.075 38.0927C101.075 37.6112 100.684 37.22 100.203 37.22Z" fill="#101820"/>
<path d="M100.783 40.8381H99.6211V47.7988H100.783V40.8381Z" fill="#101820"/>
<path d="M104.588 37.9954L103.498 38.2893V39.7778C103.498 40.4305 103.193 40.838 102.482 40.838H102.031V41.8843H103.426V45.8935C103.426 47.1574 104.167 47.8704 105.314 47.8704C105.765 47.8704 106.099 47.7824 106.228 47.7407V46.7523C106.113 46.7824 105.851 46.8241 105.647 46.8241C104.907 46.8241 104.588 46.4606 104.588 45.7338V41.8843H106.228V40.838H104.588V37.9954Z" fill="#101820"/>
<path d="M117.463 44.2801C117.463 45.9376 116.591 46.882 115.039 46.882C113.484 46.882 112.614 45.9376 112.614 44.2801V38.0903H111.395V44.3102C111.395 46.7084 112.949 48.0001 115.039 48.0001C117.13 48.0001 118.685 46.7061 118.685 44.3102V38.0903H117.466V44.2801H117.463Z" fill="#101820"/>
<path d="M123.766 40.6344C122.852 40.6344 122.038 41.0696 121.587 41.8844V40.8381H120.453V47.7987H121.615V43.7015C121.615 42.6113 122.239 41.683 123.357 41.683C124.62 41.683 125.085 42.4955 125.085 43.514V47.8011H126.246V43.3404C126.251 41.8242 125.437 40.6344 123.766 40.6344Z" fill="#101820"/>
<path d="M128.574 37.22C128.095 37.22 127.701 37.6112 127.701 38.0927C127.701 38.5718 128.092 38.9653 128.574 38.9653C129.053 38.9653 129.447 38.5741 129.447 38.0927C129.447 37.6112 129.053 37.22 128.574 37.22Z" fill="#101820"/>
<path d="M129.156 40.8381H127.994V47.7988H129.156V40.8381Z" fill="#101820"/>
<path d="M134.137 40.6344C132.133 40.6344 130.652 42.1738 130.652 44.3103C130.652 46.4608 132.133 48.0001 134.137 48.0001C136.14 48.0001 137.621 46.4608 137.621 44.3103C137.623 42.1738 136.143 40.6344 134.137 40.6344ZM134.137 46.9538C132.887 46.9538 131.814 46.0094 131.814 44.3103C131.814 42.6251 132.887 41.6807 134.137 41.6807C135.386 41.6807 136.46 42.6251 136.46 44.3103C136.462 46.0094 135.386 46.9538 134.137 46.9538Z" fill="#101820"/>
<path d="M142.428 40.6344C141.514 40.6344 140.7 41.0696 140.249 41.8844V40.8381H139.115V47.7987H140.277V43.7015C140.277 42.6113 140.901 41.683 142.019 41.683C143.282 41.683 143.747 42.4955 143.747 43.514V47.8011H144.909V43.3404C144.913 41.8242 144.099 40.6344 142.428 40.6344Z" fill="#101820"/>
<path d="M25.9006 34.567L21.9373 38.5323C20.4797 39.9883 18.1221 39.9883 16.6645 38.5323L1.18387 23.0439C0.626278 22.486 0.212135 21.7823 0.00390625 20.9952H12.2547L25.9006 34.567Z" fill="#101820"/>
<path d="M55.0179 20.9952C54.8097 21.7776 54.3932 22.4814 53.838 23.0415C53.8357 23.0415 53.8356 23.0439 53.8333 23.0462L38.3226 38.5415C36.872 39.9929 34.519 39.9976 33.0614 38.5462L15.4082 20.9952H28.4595L35.6943 27.7545L42.7648 20.9952H55.0179Z" fill="#101820"/>
<path d="M55.0227 18.6388H42.7858L29.1445 5.06706L33.1078 1.10178C34.5631 -0.354239 36.923 -0.354239 38.376 1.10178L53.8358 16.5694C54.398 17.1342 54.8145 17.8425 55.0227 18.6388Z" fill="#101820"/>
<path d="M39.5889 18.6384H26.5376L19.3028 11.8815L12.2323 18.6384H0C0.205915 17.8444 0.622372 17.1361 1.18228 16.5713L1.18922 16.5643L16.6768 1.08981C18.1275 -0.361581 20.4804 -0.366211 21.9357 1.08286L39.5889 18.6384Z" fill="#101820"/>
</g>
<defs>
<clipPath id="clip0">
<rect width="244" height="48" fill="white"/>
</clipPath>
</defs>
</svg>
